{
.appVersion = "3260";
.formatVersion = 3;
DisplayStrings = (
"Ä",
"Å",
"",
"",
M,
"˚"
);
customParameters = (
{
name = "Use Typo Metrics";
value = 1;
}
);
date = "2023-12-16 08:50:32 +0000";
familyName = "RR Overpaint";
featurePrefixes = (
{
automatic = 1;
code = "languagesystem DFLT dflt;
";
name = Languagesystems;
}
);
features = (
{
automatic = 1;
code = "feature salt;
";
tag = aalt;
},
{
automatic = 1;
code = "sub A by A.salt;
sub Adieresis by Adieresis.salt;
sub Aring by Aring.salt;
";
tag = salt;
}
);
fontMaster = (
{
customParameters = (
{
name = unitizerUnit;
value = "45";
}
);
id = m01;
metricValues = (
{
over = 24;
pos = 1648;
},
{
over = 24;
pos = 1400;
},
{
over = -24;
},
{
over = -24;
pos = -400;
}
);
name = Regular;
userData = {
GSCornerRadius = 40;
};
}
);
glyphs = (
{
glyphname = A;
lastChange = "2024-06-03 18:09:20 +0000";
layers = (
{
anchors = (
{
name = _top;
pos = (334,1400);
}
);
hints = (
{
name = _corner.serif;
options = 1;
origin = (0,0);
scale = (1,-1);
type = Corner;
},
{
name = _corner.serif;
origin = (0,17);
type = Corner;
},
{
name = _corner.serif;
options = 1;
origin = (0,9);
scale = (1,-1);
type = Corner;
},
{
name = _corner.serif;
origin = (0,8);
type = Corner;
},
{
name = _corner.overpaint;
origin = (0,1,1,2);
stem = 1000;
type = Corner;
},
{
name = _corner.overpaint;
origin = (0,8,1,2);
stem = 1000;
type = Corner;
},
{
name = _corner.overpaint;
origin = (0,1,1,0);
stem = 1000;
type = Corner;
},
{
name = _corner.overpaint;
origin = (0,8,1,0);
stem = 1000;
type = Corner;
}
);
layerId = m01;
shapes = (
{
closed = 1;
nodes = (
(270,0,l),
(270,1186,ls),
(270,1243,o),
(277,1248,o),
(337,1248,cs),
(398,1248,o),
(405,1243,o),
(405,1186,cs),
(405,0,l),
(585,0,l),
(585,1186,ls),
(585,1323,o),
(471,1424,o),
(334,1424,cs),
(201,1424,o),
(90,1323,o),
(90,1186,cs),
(90,0,l)
);
},
{
closed = 1;
nodes = (
(505,801,l),
(505,976,l),
(157,976,l),
(157,801,l)
);
}
);
width = 675;
}
);
unicode = (65,97);
},
{
glyphname = B;
lastChange = "2024-06-03 13:25:38 +0000";
layers = (
{
hints = (
{
name = _corner.serif;
options = 1;
origin = (2,2);
scale = (-1,1);
type = Corner;
},
{
name = _corner.serif;
origin = (2,1);
type = Corner;
},
{
name = _corner.overpaint;
origin = (0,9,2,1);
stem = 1000;
type = Corner;
}
);
layerId = m01;
shapes = (
{
closed = 1;
nodes = (
(474,-24,o),
(585,77,o),
(585,214,cs),
(585,1186,ls),
(585,1323,o),
(474,1424,o),
(341,1424,cs),
(204,1424,o),
(90,1323,o),
(90,1186,cs),
(90,214,ls),
(90,77,o),
(204,-24,o),
(341,-24,cs)
);
},
{
closed = 1;
nodes = (
(277,152,o),
(270,157,o),
(270,214,cs),
(270,1186,ls),
(270,1243,o),
(277,1248,o),
(338,1248,cs),
(398,1248,o),
(405,1243,o),
(405,1186,cs),
(405,214,ls),
(405,157,o),
(398,152,o),
(338,152,cs)
);
},
{
closed = 1;
nodes = (
(270,471,l),
(270,1650,l),
(90,1650,l),
(90,471,l)
);
}
);
width = 675;
}
);
unicode = (66,98);
},
{
glyphname = C;
lastChange = "2024-06-03 09:48:57 +0000";
layers = (
{
hints = (
{
name = _corner.serif;
options = 1;
origin = (0,4);
scale = (1,-1);
type = Corner;
},
{
name = _corner.serif;
options = 1;
origin = (0,20);
scale = (-1,1);
type = Corner;
},
{
name = _corner.serif;
origin = (0,3);
type = Corner;
},
{
name = _corner.serif;
origin = (0,19);
type = Corner;
}
);
layerId = m01;
shapes = (
{
closed = 1;
nodes = (
(474,-24,o),
(585,77,o),
(585,214,cs),
(585,436,l),
(405,436,l),
(405,214,ls),
(405,157,o),
(398,152,o),
(338,152,cs),
(277,152,o),
(270,157,o),
(270,214,cs),
(270,1186,ls),
(270,1243,o),
(277,1248,o),
(338,1248,cs),
(398,1248,o),
(405,1243,o),
(405,1186,cs),
(405,551,l),
(585,551,l),
(585,1186,ls),
(585,1323,o),
(474,1424,o),
(341,1424,cs),
(204,1424,o),
(90,1323,o),
(90,1186,cs),
(90,214,ls),
(90,77,o),
(204,-24,o),
(341,-24,cs)
);
}
);
width = 675;
}
);
unicode = (67,99);
},
{
glyphname = D;
lastChange = "2024-06-03 13:26:39 +0000";
layers = (
{
hints = (
{
name = _corner.serif;
origin = (2,1);
type = Corner;
},
{
name = _corner.serif;
options = 1;
origin = (2,2);
scale = (-1,1);
type = Corner;
},
{
name = _corner.overpaint;
origin = (0,6,2,3);
stem = 1000;
type = Corner;
}
);
layerId = m01;
shapes = (
{
closed = 1;
nodes = (
(471,-24,o),
(585,77,o),
(585,214,cs),
(585,1186,ls),
(585,1323,o),
(471,1424,o),
(334,1424,cs),
(200,1424,o),
(90,1323,o),
(90,1186,cs),
(90,214,ls),
(90,77,o),
(200,-24,o),
(334,-24,cs)
);
},
{
closed = 1;
nodes = (
(277,152,o),
(270,157,o),
(270,214,cs),
(270,1186,ls),
(270,1243,o),
(277,1248,o),
(337,1248,cs),
(398,1248,o),
(405,1243,o),
(405,1186,cs),
(405,214,ls),
(405,157,o),
(398,152,o),
(337,152,cs)
);
},
{
closed = 1;
nodes = (
(585,495,l),
(585,1674,l),
(405,1674,l),
(405,495,l)
);
}
);
width = 675;
}
);
unicode = (68,100);
},
{
glyphname = E;
lastChange = "2024-06-03 09:56:01 +0000";
layers = (
{
hints = (
{
name = _corner.serif;
origin = (0,3);
type = Corner;
},
{
name = _corner.serif;
options = 1;
origin = (0,20);
scale = (-1,1);
type = Corner;
},
{
name = _corner.serif;
options = 1;
origin = (0,4);
scale = (1,-1);
type = Corner;
},
{
name = _corner.overpaint;
origin = (0,12,1,0);
stem = 1000;
type = Corner;
},
{
name = _corner.overpaint;
origin = (0,12,1,2);
stem = 1000;
type = Corner;
},
{
name = _corner.overpaint;
origin = (0,19,1,2);
stem = 1000;
type = Corner;
}
);
layerId = m01;
shapes = (
{
closed = 1;
nodes = (
(474,-24,o),
(585,77,o),
(585,214,cs),
(585,496,l),
(405,496,l),
(405,214,ls),
(405,157,o),
(398,152,o),
(338,152,cs),
(277,152,o),
(270,157,o),
(270,214,cs),
(270,1186,ls),
(270,1243,o),
(277,1248,o),
(338,1248,cs),
(398,1248,o),
(405,1243,o),
(405,1186,cs),
(405,601,l),
(585,601,l),
(585,1186,ls),
(585,1323,o),
(474,1424,o),
(341,1424,cs),
(204,1424,o),
(90,1323,o),
(90,1186,cs),
(90,214,ls),
(90,77,o),
(204,-24,o),
(341,-24,cs)
);
},
{
closed = 1;
nodes = (
(505,601,l),
(505,776,l),
(157,776,l),
(157,601,l)
);
}
);
width = 675;
}
);
unicode = (69,101);
},
{
glyphname = F;
lastChange = "2024-06-03 13:33:37 +0000";
layers = (
{
hints = (
{
name = _corner.serif;
origin = (0,8);
type = Corner;
},
{
name = _corner.serif;
options = 1;
origin = (0,0);
scale = (1,-1);
type = Corner;
},
{
name = _corner.serif;
origin = (0,17);
type = Corner;
},
{
name = _corner.serif;
options = 1;
origin = (0,9);
scale = (1,-1);
type = Corner;
},
{
name = _corner.serif;
options = 1;
origin = (1,1);
scale = (1,-1);
type = Corner;
},
{
name = _corner.serif;
origin = (1,0);
scale = (-1,-1);
type = Corner;
},
{
name = _corner.overpaint;
origin = (0,17);
type = Corner;
},
{
name = _corner.overpaint;
origin = (0,1,1,0);
stem = 1000;
type = Corner;
},
{
name = _corner.overpaint;
origin = (0,1,1,2);
stem = 1000;
type = Corner;
}
);
layerId = m01;
shapes = (
{
closed = 1;
nodes = (
(270,-24,l),
(270,1186,ls),
(270,1243,o),
(277,1248,o),
(338,1248,cs),
(398,1248,o),
(405,1243,o),
(405,1186,cs),
(405,711,l),
(585,711,l),
(585,1186,ls),
(585,1323,o),
(474,1424,o),
(341,1424,cs),
(204,1424,o),
(90,1323,o),
(90,1186,cs),
(90,-24,l)
);
},
{
closed = 1;
nodes = (
(585,376,l),
(585,551,l),
(215,551,l),
(215,376,l)
);
}
);
width = 675;
}
);
unicode = (70,102);
},
{
glyphname = G;
lastChange = "2024-06-03 17:32:08 +0000";
layers = (
{
hints = (
{
name = _corner.serif;
options = 1;
origin = (3,1);
scale = (-1,1);
type = Corner;
},
{
name = _corner.serif;
origin = (3,0);
type = Corner;
},
{
name = _corner.serif;
origin = (0,32);
scale = (-1,-1);
type = Corner;
},
{
name = _corner.serif;
options = 1;
origin = (0,33);
scale = (-1,1);
type = Corner;
},
{
name = _corner.overpaint;
origin = (0,17,1,13);
stem = 1000;
type = Corner;
},
{
name = _corner.overpaint;
origin = (1,6,3,0);
stem = 1000;
type = Corner;
},
{
name = _corner.overpaint;
origin = (1,6,3,2);
stem = 1000;
type = Corner;
}
);
layerId = m01;
shapes = (
{
closed = 1;
nodes = (
(474,-24,o),
(588,77,o),
(588,214,cs),
(588,435,ls),
(588,572,o),
(477,673,o),
(344,673,cs),
(284,673,o),
(273,682,o),
(273,735,cs),
(273,764,ls),
(273,821,o),
(280,826,o),
(341,826,c),
(338,1002,l),
(201,1002,o),
(93,901,o),
(93,764,cs),
(93,752,ls),
(93,615,o),
(208,514,o),
(341,514,cs),
(401,514,o),
(408,509,o),
(408,452,cs),
(408,214,ls),
(408,157,o),
(401,152,o),
(340,152,cs),
(280,152,o),
(273,157,o),
(273,214,cs),
(273,424,l),
(93,424,l),
(93,214,ls),
(93,77,o),
(204,-24,o),
(337,-24,cs)
);
},
{
closed = 1;
nodes = (
(475,826,o),
(585,927,o),
(585,1064,cs),
(585,1186,ls),
(585,1323,o),
(475,1424,o),
(341,1424,cs),
(204,1424,o),
(90,1323,o),
(90,1186,cs),
(90,1064,ls),
(90,927,o),
(204,826,o),
(341,826,cs)
);
},
{
closed = 1;
nodes = (
(277,1002,o),
(270,1007,o),
(270,1064,cs),
(270,1186,ls),
(270,1243,o),
(277,1248,o),
(338,1248,cs),
(398,1248,o),
(405,1243,o),
(405,1186,cs),
(405,1064,ls),
(405,1007,o),
(398,1002,o),
(338,1002,cs)
);
},
{
closed = 1;
nodes = (
(650,1505,l),
(500,1603,l),
(363,1394,l),
(514,1295,l)
);
}
);
width = 675;
}
);
unicode = (71,103);
},
{
glyphname = H;
lastChange = "2024-06-03 13:34:28 +0000";
layers = (
{
hints = (
{
name = _corner.serif;
options = 1;
origin = (0,0);
scale = (-0.9,1);
type = Corner;
},
{
name = _corner.serif;
origin = (0,8);
scale = (0.9,1);
type = Corner;
},
{
name = _corner.serif;
options = 1;
origin = (0,9);
scale = (-1,1);
type = Corner;
},
{
name = _corner.serif;
origin = (0,17);
type = Corner;
},
{
name = _corner.serif;
options = 1;
origin = (1,2);
scale = (-1,1);
type = Corner;
},
{
name = _corner.serif;
origin = (1,1);
type = Corner;
},
{
name = _corner.overpaint;
origin = (0,16,1,1);
stem = 1000;
type = Corner;
}
);
layerId = m01;
shapes = (
{
closed = 1;
nodes = (
(270,0,l),
(270,1186,ls),
(270,1243,o),
(277,1248,o),
(338,1248,cs),
(398,1248,o),
(405,1243,o),
(405,1186,cs),
(405,0,l),
(585,0,l),
(585,1186,ls),
(585,1323,o),
(474,1424,o),
(341,1424,cs),
(204,1424,o),
(90,1323,o),
(90,1186,cs),
(90,0,l)
);
},
{
closed = 1;
nodes = (
(270,471,l),
(270,1650,l),
(90,1650,l),
(90,471,l)
);
}
);
width = 675;
}
);
unicode = (72,104);
},
{
glyphname = I;
lastChange = "2024-06-03 09:48:57 +0000";
layers = (
{
hints = (
{
name = _corner.serif;
options = 1;
origin = (0,2);
scale = (-1,1);
type = Corner;
},
{
name = _corner.serif;
origin = (0,1);
type = Corner;
},
{
name = _corner.serif;
origin = (0,3);
type = Corner;
},
{
name = _corner.serif;
options = 2;
origin = (0,0);
scale = (-1,1);
type = Corner;
}
);
layerId = m01;
shapes = (
{
closed = 1;
nodes = (
(270,0,l),
(270,1400,l),
(90,1400,l),
(90,0,l)
);
},
{
closed = 1;
nodes = (
(269,1494,o),
(300,1532,o),
(300,1603,cs),
(300,1674,o),
(269,1712,o),
(180,1712,cs),
(91,1712,o),
(60,1674,o),
(60,1603,cs),
(60,1532,o),
(91,1494,o),
(180,1494,cs)
);
}
);
width = 360;
}
);
unicode = (73,105);
},
{
glyphname = J;
lastChange = "2024-06-03 09:48:57 +0000";
layers = (
{
hints = (
{
name = _corner.serif;
origin = (0,4);
type = Corner;
},
{
name = _corner.serif;
options = 1;
origin = (0,5);
scale = (-1,1);
type = Corner;
},
{
name = _corner.serif;
options = 1;
origin = (0,11);
scale = (1,-1);
type = Corner;
},
{
name = _corner.serif;
origin = (0,10);
type = Corner;
}
);
layerId = m01;
shapes = (
{
closed = 1;
nodes = (
(19,-464,l),
(156,-464,o),
(270,-363,o),
(270,-226,cs),
(270,1400,l),
(90,1400,l),
(90,-226,ls),
(90,-283,o),
(83,-288,o),
(22,-288,c),
(-146,-288,l),
(-146,-464,l)
);
},
{
closed = 1;
nodes = (
(269,1494,o),
(300,1532,o),
(300,1603,cs),
(300,1674,o),
(269,1712,o),
(180,1712,cs),
(91,1712,o),
(60,1674,o),
(60,1603,cs),
(60,1532,o),
(91,1494,o),
(180,1494,cs)
);
}
);
width = 360;
}
);
unicode = (74,106);
},
{
glyphname = K;
lastChange = "2024-06-03 17:32:21 +0000";
layers = (
{
hints = (
{
name = _corner.serif;
options = 1;
origin = (1,0);
scale = (-1,1);
type = Corner;
},
{
name = _corner.serif;
origin = (1,3);
type = Corner;
},
{
name = _corner.serif;
origin = (0,15);
type = Corner;
},
{
name = _corner.serif;
options = 1;
origin = (0,0);
scale = (-1,1);
type = Corner;
},
{
name = _corner.serif;
options = 1;
origin = (2,10);
scale = (-1,1);
type = Corner;
},
{
name = _corner.overpaint;
origin = (2,10);
type = Corner;
},
{
name = _corner.overpaint;
origin = (0,7,1,1);
stem = 1000;
type = Corner;
},
{
name = _corner.overpaint;
origin = (0,4,2,0);
stem = 1000;
type = Corner;
},
{
name = _corner.overpaint;
origin = (0,7,2,11);
stem = 1000;
type = Corner;
},
{
name = _corner.overpaint;
origin = (3,3,4,12);
stem = 1000;
type = Corner;
}
);
layerId = m01;
shapes = (
{
closed = 1;
nodes = (
(585,0,l),
(552,635,ls),
(545,772,o),
(456,873,o),
(341,873,cs),
(204,873,o),
(90,772,o),
(90,635,c),
(270,635,l),
(270,692,o),
(281,697,o),
(322,697,cs),
(361,697,o),
(369,692,o),
(372,635,cs),
(405,0,l)
);
},
{
closed = 1;
nodes = (
(270,0,l),
(270,1332,l),
(90,1332,l),
(90,0,l)
);
},
{
closed = 1;
nodes = (
(564,1212,ls),
(570,1232,o),
(580,1242,o),
(606,1252,cs),
(636,1263,o),
(643,1290,o),
(643,1320,cs),
(643,1367,o),
(616,1400,o),
(573,1400,cs),
(429,1400,l),
(322,836,l),
(446,793,l)
);
},
{
closed = 1;
nodes = (
(270,1332,l),
(270,1559,o),
(174,1670,o),
(103,1670,cs),
(83,1670,o),
(55,1660,o),
(55,1629,cs),
(55,1619,o),
(57,1610,o),
(62,1596,cs),
(74,1563,o),
(90,1502,o),
(90,1332,c)
);
},
{
closed = 1;
nodes = (
(270,1332,l),
(270,1502,o),
(286,1563,o),
(298,1596,cs),
(303,1610,o),
(305,1619,o),
(305,1629,cs),
(305,1660,o),
(277,1670,o),
(257,1670,cs),
(186,1670,o),
(90,1559,o),
(90,1332,c)
);
}
);
width = 675;
}
);
unicode = (75,107);
},
{
glyphname = L;
lastChange = "2024-06-03 13:35:00 +0000";
layers = (
{
hints = (
{
name = _corner.serif;
options = 1;
origin = (0,0);
scale = (-1,1);
type = Corner;
},
{
name = _corner.serif;
origin = (0,3);
type = Corner;
},
{
name = _corner.overpaint;
origin = (1,3,2,12);
stem = 1000;
type = Corner;
}
);
layerId = m01;
shapes = (
{
closed = 1;
nodes = (
(270,0,l),
(270,1332,l),
(90,1332,l),
(90,0,l)
);
},
{
closed = 1;
nodes = (
(270,1332,l),
(270,1559,o),
(174,1670,o),
(103,1670,cs),
(83,1670,o),
(55,1660,o),
(55,1629,cs),
(55,1619,o),
(57,1610,o),
(62,1596,cs),
(74,1563,o),
(90,1502,o),
(90,1332,c)
);
},
{
closed = 1;
nodes = (
(270,1332,l),
(270,1501,o),
(285,1563,o),
(298,1596,cs),
(303,1609,o),
(305,1619,o),
(305,1629,cs),
(305,1660,o),
(277,1670,o),
(257,1670,cs),
(186,1670,o),
(90,1559,o),
(90,1332,c)
);
}
);
width = 360;
},
{
associatedMasterId = m01;
hints = (
{
name = _corner.serif;
options = 1;
origin = (0,10);
scale = (-1,1);
type = Corner;
},
{
name = _corner.serif;
origin = (0,9);
type = Corner;
},
{
name = _corner.serif;
options = 1;
origin = (0,4);
scale = (1,-1);
type = Corner;
},
{
name = _corner.serif;
origin = (0,3);
type = Corner;
}
);
layerId = "A7C4F85B-73B1-4A59-A014-71763864B15E";
name = "16 Dec 23, 15:58";
shapes = (
{
closed = 1;
nodes = (
(277,152,o),
(270,157,o),
(270,214,cs),
(270,1650,l),
(90,1650,l),
(90,214,ls),
(90,77,o),
(204,-24,o),
(340,-24,c),
(529,-24,l),
(529,152,l),
(340,152,l)
);
}
);
width = 585;
}
);
unicode = (76,108);
},
{
glyphname = M;
lastChange = "2024-06-03 13:35:17 +0000";
layers = (
{
hints = (
{
name = _corner.serif;
options = 1;
origin = (1,0);
scale = (-0.9,1);
type = Corner;
},
{
name = _corner.serif;
origin = (0,17);
scale = (0.9,1);
type = Corner;
},
{
name = _corner.serif;
options = 1;
origin = (0,0);
scale = (-1,1);
type = Corner;
},
{
name = _corner.serif;
origin = (1,17);
type = Corner;
},
{
name = _corner.serif;
origin = (0,8);
scale = (0.9,1);
type = Corner;
},
{
name = _corner.serif;
options = 1;
origin = (0,9);
scale = (-1,1);
type = Corner;
},
{
name = _corner.overpaint;
origin = (0,16,1,13);
stem = 1000;
type = Corner;
}
);
layerId = m01;
shapes = (
{
closed = 1;
nodes = (
(585,0,l),
(585,1186,ls),
(585,1243,o),
(592,1248,o),
(653,1248,cs),
(713,1248,o),
(720,1243,o),
(720,1186,cs),
(720,0,l),
(900,0,l),
(900,1186,ls),
(900,1323,o),
(789,1424,o),
(656,1424,cs),
(519,1424,o),
(405,1323,o),
(405,1186,cs),
(405,0,l)
);
},
{
closed = 1;
nodes = (
(270,0,l),
(270,1186,ls),
(270,1243,o),
(277,1248,o),
(338,1248,cs),
(398,1248,o),
(405,1243,o),
(405,1186,cs),
(405,0,l),
(585,0,l),
(585,1186,ls),
(585,1323,o),
(474,1424,o),
(341,1424,cs),
(204,1424,o),
(90,1323,o),
(90,1186,cs),
(90,0,l)
);
}
);
width = 990;
}
);
unicode = (77,109);
},
{
glyphname = N;
lastChange = "2024-06-03 09:48:57 +0000";
layers = (
{
hints = (
{
name = _corner.serif;
options = 1;
origin = (0,0);
scale = (-0.9,1);
type = Corner;
},
{
name = _corner.serif;
origin = (0,8);
scale = (0.9,1);
type = Corner;
},
{
name = _corner.serif;
options = 1;
origin = (0,9);
scale = (-1,1);
type = Corner;
},
{
name = _corner.serif;
origin = (0,17);
type = Corner;
}
);
layerId = m01;
shapes = (
{
closed = 1;
nodes = (
(270,0,l),
(270,1186,ls),
(270,1243,o),
(277,1248,o),
(338,1248,cs),
(398,1248,o),
(405,1243,o),
(405,1186,cs),
(405,0,l),
(585,0,l),
(585,1186,ls),
(585,1323,o),
(474,1424,o),
(341,1424,cs),
(204,1424,o),
(90,1323,o),
(90,1186,cs),
(90,0,l)
);
}
);
width = 675;
},
{
associatedMasterId = m01;
hints = (
{
name = _corner.serif;
options = 1;
origin = (0,0);
scale = (-0.9,1);
type = Corner;
},
{
name = _corner.serif;
origin = (0,8);
scale = (0.9,1);
type = Corner;
},
{
name = _corner.serif;
options = 1;
origin = (0,9);
scale = (-1,1);
type = Corner;
},
{
name = _corner.serif;
origin = (0,17);
type = Corner;
}
);
layerId = "3FF152B6-B9E0-4B7F-B46B-860E3D22AEF0";
name = "16 Dec 23, 10:05";
shapes = (
{
closed = 1;
nodes = (
(270,0,l),
(270,1186,ls),
(270,1243,o),
(277,1248,o),
(338,1248,cs),
(398,1248,o),
(405,1243,o),
(405,1186,cs),
(405,0,l),
(585,0,l),
(585,1186,ls),
(585,1323,o),
(474,1424,o),
(341,1424,cs),
(204,1424,o),
(90,1323,o),
(90,1186,cs),
(90,0,l)
);
},
{
closed = 1;
nodes = (
(109,1400,ls),
(66,1400,o),
(39,1367,o),
(39,1320,cs),
(39,1290,o),
(50,1265,o),
(69,1251,cs),
(77,1245,o),
(90,1233,o),
(90,1212,cs),
(90,1082,l),
(270,1082,l),
(270,1300,ls),
(270,1351,o),
(248,1400,o),
(193,1400,cs)
);
}
);
width = 675;
}
);
unicode = (78,110);
},
{
glyphname = O;
lastChange = "2024-06-03 13:53:04 +0000";
layers = (
{
anchors = (
{
name = _top;
pos = (341,1400);
}
);
layerId = m01;
shapes = (
{
closed = 1;
nodes = (
(474,-24,o),
(585,77,o),
(585,214,cs),
(585,1186,ls),
(585,1323,o),
(474,1424,o),
(341,1424,cs),
(204,1424,o),
(90,1323,o),
(90,1186,cs),
(90,214,ls),
(90,77,o),
(204,-24,o),
(341,-24,cs)
);
},
{
closed = 1;
nodes = (
(277,152,o),
(270,157,o),
(270,214,cs),
(270,1186,ls),
(270,1243,o),
(277,1248,o),
(338,1248,cs),
(398,1248,o),
(405,1243,o),
(405,1186,cs),
(405,214,ls),
(405,157,o),
(398,152,o),
(338,152,cs)
);
}
);
width = 675;
}
);
unicode = (79,111);
},
{
glyphname = P;
lastChange = "2024-06-03 13:35:46 +0000";
layers = (
{
hints = (
{
name = _corner.serif;
origin = (1,3);
scale = (-1,-1);
type = Corner;
},
{
name = _corner.serif;
options = 1;
origin = (1,0);
scale = (1,-1);
type = Corner;
},
{
name = _corner.overpaint;
origin = (0,13,1,1);
stem = 1000;
type = Corner;
}
);
layerId = m01;
shapes = (
{
closed = 1;
nodes = (
(475,-24,o),
(585,77,o),
(585,214,cs),
(585,1186,ls),
(585,1323,o),
(475,1424,o),
(341,1424,cs),
(204,1424,o),
(90,1323,o),
(90,1186,cs),
(90,214,ls),
(90,77,o),
(204,-24,o),
(341,-24,cs)
);
},
{
closed = 1;
nodes = (
(270,-274,l),
(270,905,l),
(90,905,l),
(90,-274,l)
);
},
{
closed = 1;
nodes = (
(277,152,o),
(270,157,o),
(270,214,cs),
(270,1186,ls),
(270,1243,o),
(277,1248,o),
(338,1248,cs),
(398,1248,o),
(405,1243,o),
(405,1186,cs),
(405,214,ls),
(405,157,o),
(398,152,o),
(338,152,cs)
);
}
);
width = 675;
}
);
unicode = (80,112);
},
{
glyphname = Q;
lastChange = "2024-06-03 13:35:58 +0000";
layers = (
{
hints = (
{
name = _corner.serif;
options = 1;
origin = (1,0);
scale = (1,-1);
type = Corner;
},
{
name = _corner.serif;
origin = (1,3);
type = Corner;
},
{
name = _corner.overpaint;
origin = (0,2,1,1);
stem = 1000;
type = Corner;
},
{
name = _corner.overpaint;
origin = (0,2,1,3);
stem = 1000;
type = Corner;
}
);
layerId = m01;
shapes = (
{
closed = 1;
nodes = (
(474,-24,o),
(585,77,o),
(585,214,cs),
(585,1186,ls),
(585,1323,o),
(474,1424,o),
(341,1424,cs),
(204,1424,o),
(90,1323,o),
(90,1186,cs),
(90,214,ls),
(90,77,o),
(204,-24,o),
(341,-24,cs)
);
},
{
closed = 1;
nodes = (
(740,-100,l),
(520,139,l),
(407,28,l),
(624,-207,l)
);
},
{
closed = 1;
nodes = (
(277,152,o),
(270,157,o),
(270,214,cs),
(270,1186,ls),
(270,1243,o),
(277,1248,o),
(338,1248,cs),
(398,1248,o),
(405,1243,o),
(405,1186,cs),
(405,214,ls),
(405,157,o),
(398,152,o),
(338,152,cs)
);
}
);
width = 675;
}
);
unicode = (81,113);
},
{
glyphname = R;
lastChange = "2024-06-03 09:48:57 +0000";
layers = (
{
hints = (
{
name = _corner.serif;
origin = (0,8);
type = Corner;
},
{
name = _corner.serif;
options = 1;
origin = (0,9);
scale = (-1,1);
type = Corner;
},
{
name = _corner.serif;
origin = (0,17);
type = Corner;
},
{
name = _corner.serif;
options = 1;
origin = (0,0);
scale = (-1,1);
type = Corner;
}
);
layerId = m01;
shapes = (
{
closed = 1;
nodes = (
(270,0,l),
(270,1186,ls),
(270,1243,o),
(277,1248,o),
(338,1248,cs),
(398,1248,o),
(405,1243,o),
(405,1186,cs),
(405,771,l),
(585,771,l),
(585,1186,ls),
(585,1323,o),
(474,1424,o),
(341,1424,cs),
(204,1424,o),
(90,1323,o),
(90,1186,cs),
(90,0,l)
);
}
);
width = 675;
}
);
unicode = (82,114);
},
{
glyphname = S;
lastChange = "2024-06-03 13:36:10 +0000";
layers = (
{
hints = (
{
name = _corner.serif;
origin = (0,40);
scale = (-1,-1);
type = Corner;
},
{
name = _corner.serif;
options = 1;
origin = (0,18);
scale = (-1,1);
type = Corner;
},
{
name = _corner.serif;
options = 1;
origin = (0,41);
scale = (-1,1);
type = Corner;
},
{
name = _corner.serif;
origin = (0,17);
type = Corner;
}
);
layerId = m01;
shapes = (
{
closed = 1;
nodes = (
(471,-24,o),
(585,77,o),
(585,214,cs),
(585,415,ls),
(585,552,o),
(474,653,o),
(341,653,cs),
(281,653,o),
(270,662,o),
(270,715,cs),
(270,1186,ls),
(270,1243,o),
(277,1248,o),
(338,1248,cs),
(398,1248,o),
(405,1243,o),
(405,1186,cs),
(405,719,l),
(585,719,l),
(585,1186,ls),
(585,1323,o),
(474,1424,o),
(341,1424,cs),
(204,1424,o),
(90,1323,o),
(90,1186,cs),
(90,732,ls),
(90,595,o),
(205,494,o),
(338,494,cs),
(398,494,o),
(405,489,o),
(405,432,cs),
(405,214,ls),
(405,157,o),
(398,152,o),
(337,152,cs),
(277,152,o),
(270,157,o),
(270,214,cs),
(270,424,l),
(90,424,l),
(90,214,ls),
(90,77,o),
(201,-24,o),
(334,-24,cs)
);
}
);
width = 675;
}
);
unicode = (83,115);
},
{
glyphname = T;
lastChange = "2024-06-03 13:36:20 +0000";
layers = (
{
hints = (
{
name = _corner.serif;
options = 1;
origin = (0,4);
scale = (1,-1);
type = Corner;
},
{
name = _corner.serif;
origin = (0,3);
type = Corner;
},
{
name = _corner.serif;
options = 1;
origin = (1,1);
scale = (-1,1);
type = Corner;
},
{
name = _corner.serif;
origin = (1,0);
type = Corner;
},
{
name = _corner.serif;
options = 1;
origin = (0,13);
scale = (1,-1);
type = Corner;
},
{
name = _corner.serif;
origin = (0,12);
type = Corner;
},
{
name = _corner.overpaint;
origin = (0,12,1,0);
stem = 1000;
type = Corner;
},
{
name = _corner.overpaint;
origin = (0,12,1,2);
stem = 1000;
type = Corner;
}
);
layerId = m01;
shapes = (
{
closed = 1;
nodes = (
(474,-24,o),
(585,77,o),
(585,214,cs),
(585,1065,l),
(405,1065,l),
(405,214,ls),
(405,157,o),
(398,152,o),
(338,152,cs),
(277,152,o),
(270,157,o),
(270,214,cs),
(270,1650,l),
(90,1650,l),
(90,214,ls),
(90,77,o),
(204,-24,o),
(341,-24,cs)
);
},
{
closed = 1;
nodes = (
(585,1225,l),
(585,1400,l),
(215,1400,l),
(215,1225,l)
);
}
);
width = 675;
}
);
unicode = (84,116);
},
{
glyphname = U;
lastChange = "2024-06-03 13:36:28 +0000";
layers = (
{
hints = (
{
name = _corner.serif;
options = 1;
origin = (0,4);
scale = (-0.9,1);
type = Corner;
},
{
name = _corner.serif;
origin = (0,12);
scale = (0.9,1);
type = Corner;
},
{
name = _corner.serif;
options = 1;
origin = (0,13);
scale = (-1,1);
type = Corner;
},
{
name = _corner.serif;
origin = (0,3);
type = Corner;
}
);
layerId = m01;
shapes = (
{
closed = 1;
nodes = (
(471,-24,o),
(585,77,o),
(585,214,cs),
(585,1400,l),
(405,1400,l),
(405,214,ls),
(405,157,o),
(398,152,o),
(337,152,cs),
(277,152,o),
(270,157,o),
(270,214,cs),
(270,1400,l),
(90,1400,l),
(90,214,ls),
(90,77,o),
(201,-24,o),
(334,-24,cs)
);
}
);
width = 675;
}
);
unicode = (85,117);
},
{
glyphname = V;
lastChange = "2024-06-03 13:38:37 +0000";
layers = (
{
hints = (
{
name = _corner.serif;
origin = (0,3);
type = Corner;
},
{
name = _corner.serif;
options = 1;
origin = (0,4);
scale = (-0.9,1);
type = Corner;
},
{
name = _corner.serif;
origin = (0,12);
scale = (0.9,1);
type = Corner;
},
{
name = _corner.serif;
options = 1;
origin = (0,13);
scale = (-1,1);
type = Corner;
}
);
layerId = m01;
shapes = (
{
closed = 1;
nodes = (
(449,-24,o),
(540,54,o),
(545,214,cs),
(585,1400,l),
(405,1400,l),
(365,214,ls),
(364,157,o),
(362,152,o),
(337,152,cs),
(313,152,o),
(310,157,o),
(310,214,cs),
(270,1400,l),
(90,1400,l),
(130,214,ls),
(135,54,o),
(223,-24,o),
(334,-24,cs)
);
}
);
width = 675;
}
);
unicode = (86,118);
},
{
glyphname = W;
lastChange = "2024-06-03 13:39:00 +0000";
layers = (
{
hints = (
{
name = _corner.serif;
origin = (1,12);
scale = (-0.9,-1);
type = Corner;
},
{
name = _corner.serif;
options = 1;
origin = (0,13);
scale = (0.9,-1);
type = Corner;
},
{
name = _corner.serif;
origin = (0,12);
scale = (-1,-1);
type = Corner;
},
{
name = _corner.serif;
options = 1;
origin = (1,13);
scale = (1,-1);
type = Corner;
},
{
name = _corner.serif;
options = 1;
origin = (0,4);
scale = (0.9,-1);
type = Corner;
},
{
name = _corner.serif;
origin = (0,3);
scale = (-1,-1);
type = Corner;
},
{
name = _corner.overpaint;
origin = (0,17,1,2);
stem = 1000;
type = Corner;
}
);
layerId = m01;
shapes = (
{
closed = 1;
nodes = (
(789,-24,o),
(900,77,o),
(900,214,cs),
(900,1400,l),
(720,1400,l),
(720,214,ls),
(720,157,o),
(713,152,o),
(653,152,cs),
(592,152,o),
(585,157,o),
(585,214,cs),
(585,1400,l),
(405,1400,l),
(405,214,ls),
(405,77,o),
(519,-24,o),
(656,-24,cs)
);
},
{
closed = 1;
nodes = (
(474,-24,o),
(585,77,o),
(585,214,cs),
(585,1400,l),
(405,1400,l),
(405,214,ls),
(405,157,o),
(398,152,o),
(338,152,cs),
(277,152,o),
(270,157,o),
(270,214,cs),
(270,1400,l),
(90,1400,l),
(90,214,ls),
(90,77,o),
(204,-24,o),
(341,-24,cs)
);
}
);
width = 990;
}
);
unicode = (87,119);
},
{
glyphname = X;
lastChange = "2024-06-03 13:39:18 +0000";
layers = (
{
background = {
hints = (
{
name = _corner.serif;
options = 1;
origin = (0,0);
scale = (-0.9,1);
type = Corner;
},
{
name = _corner.serif;
origin = (0,8);
scale = (0.9,1);
type = Corner;
},
{
name = _corner.serif;
options = 1;
origin = (0,9);
scale = (-1,1);
type = Corner;
},
{
name = _corner.serif;
origin = (0,17);
type = Corner;
}
);
shapes = (
{
closed = 1;
nodes = (
(270,0,l),
(270,1186,ls),
(270,1243,o),
(277,1248,o),
(338,1248,cs),
(398,1248,o),
(405,1243,o),
(405,1186,cs),
(405,0,l),
(585,0,l),
(585,1186,ls),
(585,1323,o),
(474,1424,o),
(341,1424,cs),
(204,1424,o),
(90,1323,o),
(90,1186,cs),
(90,0,l)
);
}
);
};
hints = (
{
name = _corner.serif;
origin = (0,12);
type = Corner;
},
{
name = _corner.serif;
options = 1;
origin = (3,10);
scale = (-1,1);
type = Corner;
},
{
name = _corner.serif;
origin = (2,1);
type = Corner;
},
{
name = _corner.serif;
options = 1;
origin = (1,0);
scale = (-1,1);
type = Corner;
},
{
name = _corner.overpaint;
origin = (1,12,3,0);
stem = 1000;
type = Corner;
},
{
name = _corner.overpaint;
origin = (2,1,3,11);
stem = 1000;
type = Corner;
},
{
name = _corner.overpaint;
origin = (0,12,1,1);
stem = 1000;
type = Corner;
},
{
name = _corner.overpaint;
origin = (1,3,2,12);
stem = 1000;
type = Corner;
}
);
layerId = m01;
shapes = (
{
closed = 1;
nodes = (
(590,0,ls),
(633,0,o),
(660,33,o),
(660,80,cs),
(660,110,o),
(653,137,o),
(623,148,cs),
(597,158,o),
(585,168,o),
(581,188,cs),
(452,774,l),
(326,762,l),
(446,0,l)
);
},
{
closed = 1;
nodes = (
(229,0,l),
(349,762,l),
(223,774,l),
(94,188,ls),
(90,168,o),
(78,158,o),
(52,148,cs),
(22,137,o),
(15,110,o),
(15,80,cs),
(15,33,o),
(42,0,o),
(85,0,cs)
);
},
{
closed = 1;
nodes = (
(349,758,l),
(229,1400,l),
(85,1400,ls),
(42,1400,o),
(15,1367,o),
(15,1320,cs),
(15,1290,o),
(22,1263,o),
(52,1252,cs),
(78,1242,o),
(88,1232,o),
(94,1212,cs),
(225,737,l)
);
},
{
closed = 1;
nodes = (
(581,1212,ls),
(587,1232,o),
(597,1242,o),
(623,1252,cs),
(653,1263,o),
(660,1290,o),
(660,1320,cs),
(660,1367,o),
(633,1400,o),
(590,1400,cs),
(446,1400,l),
(326,758,l),
(452,743,l)
);
}
);
width = 675;
}
);
unicode = (88,120);
},
{
glyphname = Y;
lastChange = "2024-06-03 13:39:42 +0000";
layers = (
{
hints = (
{
name = _corner.serif;
origin = (0,3);
scale = (-1,-1);
type = Corner;
},
{
name = _corner.serif;
options = 1;
origin = (0,4);
scale = (0.9,-1);
type = Corner;
},
{
name = _corner.serif;
origin = (0,12);
scale = (-0.9,-1);
type = Corner;
},
{
name = _corner.serif;
options = 1;
origin = (0,13);
scale = (1,-1);
type = Corner;
},
{
name = _corner.serif;
origin = (1,3);
scale = (-1,-1);
type = Corner;
},
{
name = _corner.serif;
options = 1;
origin = (1,0);
scale = (1,-1);
type = Corner;
},
{
name = _corner.overpaint;
origin = (0,2,1,3);
stem = 1000;
type = Corner;
}
);
layerId = m01;
shapes = (
{
closed = 1;
nodes = (
(474,-24,o),
(585,77,o),
(585,214,cs),
(585,1400,l),
(405,1400,l),
(405,214,ls),
(405,157,o),
(398,152,o),
(338,152,cs),
(277,152,o),
(270,157,o),
(270,214,cs),
(270,1400,l),
(90,1400,l),
(90,214,ls),
(90,77,o),
(204,-24,o),
(341,-24,cs)
);
},
{
closed = 1;
nodes = (
(585,-274,l),
(585,905,l),
(405,905,l),
(405,-274,l)
);
}
);
width = 675;
}
);
unicode = (89,121);
},
{
glyphname = Z;
lastChange = "2024-06-03 09:48:57 +0000";
layers = (
{
hints = (
{
name = _corner.serif;
origin = (0,10);
type = Corner;
},
{
name = _corner.serif;
options = 2;
origin = (0,11);
scale = (-1,1);
type = Corner;
},
{
name = _corner.serif;
options = 2;
origin = (0,1);
scale = (-1,1);
type = Corner;
},
{
name = _corner.serif;
options = 2;
origin = (0,0);
type = Corner;
},
{
name = _corner.overpaint;
origin = (0,12);
type = Corner;
},
{
name = _corner.overpaint;
origin = (0,2);
type = Corner;
}
);
layerId = m01;
shapes = (
{
closed = 1;
nodes = (
(525,0,l),
(525,176,l),
(231,176,l),
(467,1115,ls),
(478,1157,o),
(495,1236,o),
(495,1322,cs),
(495,1375,o),
(448,1400,o),
(396,1400,cs),
(46,1400,l),
(46,1224,l),
(309,1224,l),
(82,325,ls),
(63,251,o),
(45,160,o),
(45,80,cs),
(45,28,o),
(73,0,o),
(125,0,cs)
);
}
);
width = 585;
}
);
unicode = (90,122);
},
{
glyphname = A.salt;
lastChange = "2024-06-03 18:09:20 +0000";
layers = (
{
anchors = (
{
name = _top;
pos = (334,1400);
}
);
hints = (
{
name = _corner.serif;
options = 1;
origin = (0,11);
scale = (-1,1);
type = Corner;
},
{
name = _corner.serif;
origin = (0,10);
type = Corner;
},
{
name = _corner.overpaint;
origin = (0,19,0,36);
stem = 1000;
type = Corner;
}
);
layerId = m01;
shapes = (
{
closed = 1;
nodes = (
(471,-24,o),
(585,77,o),
(585,214,cs),
(585,1186,ls),
(585,1323,o),
(471,1424,o),
(334,1424,cs),
(201,1424,o),
(90,1323,o),
(90,1186,cs),
(90,808,l),
(270,808,l),
(270,1186,ls),
(270,1243,o),
(277,1248,o),
(337,1248,cs),
(398,1248,o),
(405,1243,o),
(405,1186,cs),
(405,214,ls),
(405,157,o),
(398,152,o),
(337,152,cs),
(277,152,o),
(270,157,o),
(270,214,cs),
(270,467,ls),
(270,524,o),
(277,529,o),
(338,529,cs),
(398,529,o),
(405,524,o),
(405,467,c),
(585,467,l),
(585,604,o),
(474,705,o),
(341,705,cs),
(204,705,o),
(90,604,o),
(90,467,cs),
(90,214,ls),
(90,77,o),
(201,-24,o),
(334,-24,cs)
);
}
);
width = 675;
}
);
},
{
glyphname = period;
lastChange = "2024-06-03 09:48:57 +0000";
layers = (
{
layerId = m01;
shapes = (
{
closed = 1;
nodes = (
(269,-24,o),
(300,14,o),
(300,85,cs),
(300,156,o),
(269,194,o),
(180,194,cs),
(91,194,o),
(60,156,o),
(60,85,cs),
(60,14,o),
(91,-24,o),
(180,-24,cs)
);
}
);
width = 360;
}
);
unicode = 46;
},
{
glyphname = comma;
lastChange = "2024-06-03 17:35:16 +0000";
layers = (
{
hints = (
{
name = _corner.overpaint;
origin = (0,2,1,6);
stem = 1000;
type = Corner;
}
);
layerId = m01;
shapes = (
{
closed = 1;
nodes = (
(251,-24,o),
(310,-1,o),
(310,70,cs),
(310,156,o),
(269,194,o),
(180,194,cs),
(91,194,o),
(60,156,o),
(60,85,cs),
(60,14,o),
(91,-24,o),
(162,-24,cs)
);
},
{
closed = 1;
nodes = (
(260,-128,o),
(310,-64,o),
(310,70,c),
(191,70,l),
(191,-84,o),
(171,-82,o),
(171,-101,cs),
(171,-119,o),
(180,-128,o),
(204,-128,cs)
);
}
);
width = 360;
}
);
unicode = 44;
},
{
glyphname = dieresis;
lastChange = "2024-06-03 13:53:17 +0000";
layers = (
{
anchors = (
{
name = top;
pos = (340,1400);
}
);
layerId = m01;
shapes = (
{
closed = 1;
nodes = (
(651,1391,o),
(675,1422,o),
(675,1479,cs),
(675,1536,o),
(651,1567,o),
(579,1567,cs),
(507,1567,o),
(483,1536,o),
(483,1479,cs),
(483,1422,o),
(507,1391,o),
(579,1391,cs)
);
},
{
closed = 1;
nodes = (
(168,1391,o),
(192,1422,o),
(192,1479,cs),
(192,1536,o),
(168,1567,o),
(96,1567,cs),
(24,1567,o),
(0,1536,o),
(0,1479,cs),
(0,1422,o),
(24,1391,o),
(96,1391,cs)
);
}
);
width = 675;
}
);
metricRight = "=|";
unicode = 168;
},
{
glyphname = ring;
lastChange = "2024-06-03 18:08:01 +0000";
layers = (
{
anchors = (
{
name = top;
pos = (334,1400);
}
);
layerId = m01;
shapes = (
{
attr = {
strokeHeight = 116;
strokeWidth = 120;
};
closed = 1;
nodes = (
(397,1519,o),
(431,1557,o),
(431,1611,cs),
(431,1669,o),
(393,1703,o),
(339,1703,cs),
(281,1703,o),
(247,1665,o),
(247,1611,cs),
(247,1553,o),
(285,1519,o),
(339,1519,cs)
);
}
);
width = 675;
}
);
unicode = 730;
},
{
export = 0;
glyphname = _corner.overpaint;
lastChange = "2023-12-18 10:29:28 +0000";
layers = (
{
anchors = (
{
name = left;
pos = (31,31);
},
{
name = origin;
pos = (31,39);
},
{
name = right;
pos = (0,39);
}
);
layerId = m01;
shapes = (
{
closed = 0;
nodes = (
(31,8,l),
(31,29,o),
(21,39,o),
(0,39,c)
);
}
);
width = 400;
}
);
},
